<svg width="30" height="30" viewBox="0 0 30 30" fill="none" xmlns="http://www.w3.org/2000/svg">
<rect x="1.69971" y="1.31" width="27" height="27" stroke="white" stroke-width="2"/>
<path d="M21.0239 12.3944C20.9954 11.7705 20.8966 11.3448 20.7517 10.9721C20.6021 10.587 20.4017 10.26 20.0759 9.93422C19.7501 9.60843 19.4235 9.40804 19.038 9.25844C18.6653 9.11351 18.2392 9.01468 17.6157 8.98617C16.9907 8.95726 16.7911 8.95062 15.1997 8.95062C13.6083 8.95062 13.4087 8.95726 12.7841 8.98578C12.1603 9.01429 11.7345 9.11312 11.3618 9.25804C10.9767 9.40765 10.6497 9.60804 10.3239 9.93383C9.99814 10.2596 9.79775 10.5862 9.64814 10.9717C9.50322 11.3444 9.40439 11.7705 9.37588 12.394C9.34697 13.019 9.34033 13.2186 9.34033 14.81C9.34033 16.4014 9.34697 16.601 9.37549 17.2256C9.404 17.8495 9.50283 18.2752 9.64775 18.6479C9.79736 19.033 9.99775 19.36 10.3235 19.6858C10.6493 20.0116 10.9759 20.212 11.3614 20.3616C11.7341 20.5065 12.1603 20.6053 12.7837 20.6338C13.4087 20.6627 13.6083 20.6694 15.1997 20.6694C16.7911 20.6694 16.9907 20.6627 17.6153 20.6342C18.2392 20.6057 18.6649 20.5069 19.0376 20.362C19.4228 20.2123 19.7497 20.012 20.0755 19.6862C20.4013 19.3604 20.6017 19.0338 20.7513 18.6483C20.8962 18.2756 20.995 17.8495 21.0235 17.226C21.0524 16.601 21.0591 16.4014 21.0591 14.81C21.0591 13.2186 21.0524 13.019 21.0239 12.3944ZM19.9692 17.1776C19.9431 17.7487 19.8478 18.0592 19.7677 18.2655C19.6614 18.5389 19.5345 18.7342 19.3294 18.9393C19.1243 19.1444 18.929 19.2713 18.6556 19.3776C18.4489 19.4577 18.1388 19.5534 17.5677 19.5791C16.9501 19.6073 16.7646 19.6131 15.2001 19.6131C13.6356 19.6131 13.4501 19.6073 12.8325 19.5791C12.2614 19.553 11.9509 19.4577 11.7446 19.3776C11.4712 19.2713 11.2759 19.1444 11.0708 18.9393C10.8657 18.7342 10.7388 18.5389 10.6325 18.2655C10.5524 18.0588 10.4567 17.7487 10.431 17.1776C10.4028 16.5596 10.397 16.3745 10.397 14.81C10.397 13.2455 10.4028 13.06 10.431 12.4424C10.4571 11.8713 10.5524 11.5608 10.6325 11.3545C10.7388 11.0811 10.8657 10.8858 11.0708 10.6807C11.2759 10.4756 11.4712 10.3487 11.7446 10.2424C11.9513 10.1623 12.2614 10.0666 12.8325 10.0409C13.4505 10.0127 13.6356 10.0069 15.2001 10.0069C16.7646 10.0069 16.9501 10.0127 17.5677 10.0409C18.1388 10.067 18.4493 10.1623 18.6556 10.2424C18.929 10.3487 19.1243 10.4756 19.3294 10.6807C19.5345 10.8858 19.6614 11.0811 19.7677 11.3545C19.8478 11.5612 19.9435 11.8713 19.9692 12.4424C19.9974 13.0604 20.0032 13.2455 20.0032 14.81C20.0032 16.3745 19.9974 16.56 19.9692 17.1776ZM15.1997 11.801C13.538 11.801 12.1907 13.1483 12.1907 14.81C12.1907 16.4717 13.538 17.819 15.1997 17.819C16.8614 17.819 18.2087 16.4717 18.2087 14.81C18.2087 13.1483 16.8614 11.801 15.1997 11.801ZM15.1997 16.7631C14.1212 16.7631 13.2466 15.8885 13.2466 14.81C13.2466 13.7315 14.1212 12.8569 15.1997 12.8569C16.2782 12.8569 17.1528 13.7315 17.1528 14.81C17.1528 15.8885 16.2782 16.7631 15.1997 16.7631ZM18.3274 10.9791C17.9392 10.9791 17.6243 11.294 17.6243 11.6823C17.6243 12.0705 17.9392 12.3854 18.3274 12.3854C18.7157 12.3854 19.0306 12.0705 19.0306 11.6823C19.0306 11.294 18.7157 10.9791 18.3274 10.9791Z" fill="white"/>
</svg>
