<svg width="30" height="30" viewBox="0 0 30 30" fill="none" xmlns="http://www.w3.org/2000/svg">
<rect x="1.63965" y="1.31" width="27" height="27" stroke="white" stroke-width="2"/>
<path d="M10.6084 19.4975H12.7178V12.7006H10.6084V19.4975ZM11.6631 9.34125C10.999 9.34125 10.4521 9.88812 10.4521 10.5522C10.4521 11.2162 10.999 11.7631 11.6631 11.7631C12.3271 11.7631 12.874 11.2162 12.874 10.5522C12.874 9.88812 12.3271 9.34125 11.6631 9.34125ZM18.0693 12.5444C17.0537 12.5444 16.3506 13.0912 16.0771 13.6381H16.0381V12.7006H14.0068V19.4975H16.1162V16.1381C16.1162 15.2397 16.2725 14.3803 17.3662 14.3803C18.46 14.3803 18.46 15.3959 18.46 16.1772V19.4975H20.6084V15.7866C20.6084 13.9506 20.2178 12.5444 18.0693 12.5444Z" fill="white"/>
</svg>
