<svg width="32" height="32" viewBox="0 0 32 32" fill="none" xmlns="http://www.w3.org/2000/svg">
<path d="M5.01751 5.8601C4.85423 6.00163 4.72346 6.17677 4.63414 6.37352C4.54482 6.57028 4.49907 6.78402 4.50001 7.0001V28.0001C4.50001 28.3979 4.65805 28.7795 4.93935 29.0608C5.22066 29.3421 5.60219 29.5001 6.00001 29.5001C6.39784 29.5001 6.77937 29.3421 7.06067 29.0608C7.34198 28.7795 7.50001 28.3979 7.50001 28.0001V22.7151C10.355 20.5751 12.7625 21.5751 16.335 23.3401C18.3638 24.3401 20.6775 25.4901 23.185 25.4901C25.025 25.4901 26.97 24.8726 28.9825 23.1301C29.1445 22.9897 29.2745 22.8161 29.3638 22.6212C29.4531 22.4263 29.4995 22.2145 29.5 22.0001V7.0001C29.5001 6.71249 29.4174 6.43093 29.262 6.18896C29.1065 5.947 28.8848 5.75483 28.6231 5.63535C28.3615 5.51587 28.0711 5.47412 27.7864 5.51508C27.5017 5.55603 27.2348 5.67796 27.0175 5.86635C23.9288 8.5426 21.4513 7.5301 17.665 5.65635C14.1488 3.90885 9.77126 1.7426 5.01751 5.8601ZM26.5 21.2826C23.645 23.4238 21.2375 22.4213 17.665 20.6576C14.77 19.2201 11.2913 17.5001 7.50001 19.2338V7.71135C10.355 5.57135 12.7625 6.57135 16.335 8.33635C18.3638 9.33635 20.6775 10.4863 23.185 10.4863C24.3297 10.4881 25.4609 10.2402 26.5 9.7601V21.2826Z" fill="white"/>
</svg>
