<svg width="32" height="32" viewBox="0 0 32 32" fill="none" xmlns="http://www.w3.org/2000/svg">
<path d="M30.7677 14.2325L28.7677 12.2325C28.397 11.8621 27.9193 11.6176 27.4021 11.5335C26.8848 11.4494 26.3542 11.5299 25.8852 11.7637L20.2352 6.11373C20.4692 5.64489 20.55 5.11437 20.4661 4.59713C20.3822 4.0799 20.1379 3.6021 19.7677 3.23123L17.7677 1.23123C17.2989 0.762556 16.6632 0.499268 16.0002 0.499268C15.3373 0.499268 14.7016 0.762556 14.2327 1.23123L6.23274 9.23123C5.76406 9.70005 5.50078 10.3358 5.50078 10.9987C5.50078 11.6616 5.76406 12.2974 6.23274 12.7662L8.23274 14.7662C8.6023 15.1358 9.07839 15.3803 9.59409 15.4653C10.1098 15.5502 10.6391 15.4714 11.1077 15.24L3.67024 22.6725C2.92001 23.4227 2.49854 24.4402 2.49854 25.5012C2.49854 26.5622 2.92001 27.5798 3.67024 28.33C4.42047 29.0802 5.438 29.5017 6.49899 29.5017C7.55998 29.5017 8.57751 29.0802 9.32774 28.33L16.7502 20.9012C16.5208 21.3692 16.4434 21.8972 16.5288 22.4113C16.6142 22.9254 16.8581 23.4 17.2265 23.7687L19.2265 25.7687C19.4587 26.001 19.7343 26.1852 20.0377 26.3109C20.3411 26.4366 20.6662 26.5013 20.9946 26.5013C21.323 26.5013 21.6482 26.4366 21.9516 26.3109C22.2549 26.1852 22.5306 26.001 22.7627 25.7687L30.7627 17.7687C30.995 17.5366 31.1792 17.2609 31.3049 16.9575C31.4306 16.6542 31.4953 16.329 31.4953 16.0006C31.4953 15.6722 31.4306 15.347 31.3049 15.0437C31.1792 14.7403 30.995 14.4646 30.7627 14.2325H30.7677ZM10.0002 12.2925L8.70524 11L16.0002 3.70623L17.2927 4.99998L10.0002 12.2925ZM7.20524 26.2087C7.0176 26.3962 6.76317 26.5015 6.49792 26.5013C6.23268 26.5012 5.97834 26.3957 5.79087 26.2081C5.60339 26.0205 5.49814 25.766 5.49825 25.5008C5.49837 25.2355 5.60385 24.9812 5.79149 24.7937L13.2315 17.3537L14.6452 18.7687L7.20524 26.2087ZM18.7927 18.6725L13.3277 13.2075L18.2027 8.33248L23.6677 13.7975L18.7927 18.6725ZM20.999 23.2975L19.7065 22L27.0002 14.7075L28.2927 16L20.999 23.2975Z" fill="white"/>
</svg>
