<svg width="32" height="32" viewBox="0 0 32 32" fill="none" xmlns="http://www.w3.org/2000/svg">
<path d="M27.8013 19.3951C27.5873 19.26 27.3425 19.1812 27.0899 19.1661C26.8372 19.1511 26.5849 19.2001 26.3563 19.3089C26.0416 19.4588 25.6932 19.5239 25.3456 19.4977C24.998 19.4715 24.6633 19.3549 24.3747 19.1595C24.086 18.9641 23.8535 18.6966 23.7 18.3836C23.5466 18.0706 23.4777 17.723 23.5 17.3751C23.5341 16.8933 23.7393 16.4395 24.0785 16.0957C24.4178 15.7519 24.8687 15.5406 25.35 15.5001C25.694 15.4744 26.0387 15.539 26.35 15.6876C26.5786 15.7975 26.8312 15.8476 27.0844 15.8334C27.3375 15.8191 27.5829 15.7409 27.7977 15.6061C28.0124 15.4712 28.1895 15.2842 28.3123 15.0623C28.4351 14.8405 28.4997 14.5912 28.5 14.3376V9.0001C28.5 8.33706 28.2366 7.70118 27.7678 7.23234C27.299 6.76349 26.6631 6.5001 26 6.5001H22C21.9989 5.81718 21.8584 5.14166 21.5872 4.51491C21.3159 3.88816 20.9196 3.32337 20.4225 2.8551C19.9253 2.38477 19.3361 2.02247 18.692 1.79099C18.0479 1.55951 17.3629 1.46388 16.68 1.5101C15.4753 1.58926 14.3397 2.10078 13.4822 2.95055C12.6246 3.80032 12.1027 4.93118 12.0125 6.1351C12 6.25885 12 6.3751 12 6.5001H8.00003C7.33699 6.5001 6.70111 6.76349 6.23226 7.23234C5.76342 7.70118 5.50003 8.33706 5.50003 9.0001V12.5001C4.81711 12.5012 4.14159 12.6417 3.51484 12.9129C2.88809 13.1842 2.3233 13.5805 1.85503 14.0776C1.20823 14.7662 0.769758 15.624 0.590422 16.5516C0.411085 17.4792 0.498218 18.4386 0.841728 19.3187C1.18524 20.1988 1.77107 20.9636 2.53135 21.5244C3.29163 22.0852 4.19525 22.4192 5.13753 22.4876C5.25807 22.498 5.37906 22.5021 5.50003 22.5001V26.0001C5.50003 26.6631 5.76342 27.299 6.23226 27.7679C6.70111 28.2367 7.33699 28.5001 8.00003 28.5001H26C26.6631 28.5001 27.299 28.2367 27.7678 27.7679C28.2366 27.299 28.5 26.6631 28.5 26.0001V20.6639C28.5001 20.4106 28.4361 20.1614 28.3139 19.9395C28.1918 19.7177 28.0154 19.5304 27.8013 19.3951ZM25.5 25.5001H8.50003V20.6639C8.50006 20.4107 8.43602 20.1617 8.31387 19.9399C8.19173 19.7182 8.01545 19.531 7.80147 19.3957C7.58748 19.2605 7.34274 19.1816 7.09005 19.1664C6.83736 19.1512 6.58493 19.2002 6.35628 19.3089C6.04333 19.4594 5.6964 19.5254 5.35003 19.5001C4.86992 19.4598 4.4199 19.2496 4.08082 18.9073C3.74174 18.565 3.53582 18.1131 3.50003 17.6326C3.47687 17.2847 3.54504 16.9368 3.6978 16.6234C3.85056 16.31 4.08258 16.042 4.37087 15.846C4.65916 15.6499 4.9937 15.5326 5.3413 15.5057C5.68891 15.4788 6.03751 15.5432 6.35253 15.6926C6.58133 15.8021 6.83417 15.8518 7.08739 15.837C7.34061 15.8222 7.58595 15.7435 7.80047 15.6081C8.01499 15.4728 8.19168 15.2852 8.31402 15.063C8.43636 14.8408 8.50036 14.5913 8.50003 14.3376V9.5001H13.8375C14.0906 9.49992 14.3395 9.43572 14.561 9.31349C14.7826 9.19126 14.9696 9.01496 15.1047 8.80101C15.2398 8.58705 15.3186 8.3424 15.3338 8.08981C15.3489 7.83722 15.2999 7.58491 15.1913 7.35635C15.0407 7.0434 14.9748 6.69647 15 6.3501C15.0401 5.8699 15.2502 5.41974 15.5925 5.08061C15.9349 4.74148 16.387 4.53564 16.8675 4.5001C17.2153 4.47682 17.5632 4.54486 17.8766 4.69746C18.19 4.85006 18.4581 5.08192 18.6543 5.37007C18.8505 5.65821 18.9679 5.99263 18.995 6.34016C19.0221 6.6877 18.9579 7.03628 18.8088 7.35135C18.699 7.5802 18.6491 7.83317 18.6637 8.08657C18.6784 8.33997 18.7571 8.58551 18.8924 8.80021C19.0278 9.0149 19.2155 9.19173 19.4378 9.31414C19.6602 9.43655 19.91 9.50053 20.1638 9.5001H25.5V12.5001C25.375 12.5001 25.2588 12.5001 25.1375 12.5139C23.8478 12.6097 22.6453 13.2015 21.7827 14.1651C20.9201 15.1287 20.4644 16.389 20.5113 17.6815C20.5582 18.9739 21.1041 20.1979 22.0343 21.0964C22.9645 21.9949 24.2067 22.498 25.5 22.5001V25.5001Z" fill="white"/>
</svg>
