<svg width="35" height="35" viewBox="0 0 35 35" fill="none" xmlns="http://www.w3.org/2000/svg">
<g clip-path="url(#clip0_53_239)">
<path d="M18.184 21.4567C19.6447 20.3017 20.6924 18.752 21.1851 17.0178C21.6778 15.2837 21.5916 13.4489 20.9382 11.7624C20.2848 10.0759 19.0959 8.61918 17.5326 7.5899C15.9693 6.56062 14.1073 6.00854 12.1992 6.00854C10.2911 6.00854 8.42909 6.56062 6.86581 7.5899C5.30252 8.61918 4.11357 10.0759 3.46019 11.7624C2.80681 13.4489 2.72062 15.2837 3.2133 17.0178C3.70599 18.752 4.75372 20.3017 6.21439 21.4567C3.93351 22.4269 1.9569 23.9337 0.475207 25.8317C0.201541 26.1825 0.0872241 26.6212 0.157406 27.0513C0.227588 27.4814 0.47652 27.8677 0.849439 28.1251C1.22236 28.3826 1.68872 28.4901 2.14592 28.4241C2.60313 28.3581 3.01373 28.1239 3.28739 27.7731C4.31307 26.4553 5.65452 25.3835 7.20291 24.6447C8.7513 23.9059 10.463 23.5209 12.1992 23.5209C13.9354 23.5209 15.6471 23.9059 17.1955 24.6447C18.7439 25.3835 20.0853 26.4553 21.111 27.7731C21.3847 28.1241 21.7953 28.3584 22.2527 28.4246C22.71 28.4907 23.1766 28.3832 23.5497 28.1258C23.9228 27.8684 24.1719 27.482 24.2422 27.0518C24.3125 26.6215 24.1983 26.1827 23.9246 25.8317C22.4421 23.9339 20.465 22.4272 18.184 21.4567ZM6.38588 14.7656C6.38588 13.684 6.72683 12.6267 7.3656 11.7274C8.00438 10.828 8.91229 10.1271 9.97453 9.71318C11.0368 9.29926 12.2056 9.19096 13.3333 9.40197C14.461 9.61299 15.4968 10.1338 16.3098 10.8987C17.1228 11.6635 17.6765 12.6379 17.9008 13.6987C18.1251 14.7596 18.01 15.8592 17.57 16.8584C17.13 17.8577 16.3849 18.7118 15.4289 19.3127C14.4729 19.9137 13.349 20.2344 12.1992 20.2344C10.6574 20.2344 9.17877 19.6582 8.08856 18.6326C6.99836 17.607 6.38588 16.216 6.38588 14.7656ZM36.3389 28.119C36.1543 28.2466 35.9448 28.3387 35.7223 28.3902C35.4998 28.4416 35.2687 28.4512 35.0422 28.4186C34.8157 28.386 34.5983 28.3117 34.4024 28.2C34.2064 28.0883 34.0358 27.9414 33.9003 27.7676C32.872 26.4523 31.5301 25.3824 29.9822 24.6439C28.4344 23.9054 26.724 23.519 24.9885 23.5156C24.5259 23.5156 24.0823 23.3428 23.7553 23.0351C23.4282 22.7274 23.2445 22.3101 23.2445 21.875C23.2445 21.4399 23.4282 21.0226 23.7553 20.7149C24.0823 20.4072 24.5259 20.2344 24.9885 20.2344C25.8147 20.233 26.6312 20.0659 27.3834 19.7443C28.1356 19.4227 28.8063 18.9539 29.3508 18.3693C29.8953 17.7846 30.301 17.0974 30.5409 16.3536C30.7809 15.6098 30.8495 14.8264 30.7422 14.0557C30.6349 13.285 30.3543 12.5446 29.9189 11.884C29.4835 11.2234 28.9034 10.6576 28.2173 10.2245C27.5312 9.79141 26.7548 9.50087 25.9399 9.37227C25.125 9.24367 24.2903 9.27996 23.4915 9.47873C23.2684 9.53945 23.0347 9.55763 22.804 9.53222C22.5733 9.50681 22.3504 9.43831 22.1482 9.33074C21.9461 9.22317 21.7688 9.0787 21.6268 8.90581C21.4848 8.73292 21.3809 8.53509 21.3213 8.32393C21.2617 8.11277 21.2475 7.89253 21.2796 7.67614C21.3117 7.45975 21.3894 7.25156 21.5081 7.0638C21.6269 6.87604 21.7843 6.71249 21.9712 6.58274C22.158 6.45299 22.3706 6.35966 22.5963 6.30822C24.6389 5.79908 26.8049 5.95939 28.7377 6.76277C30.6705 7.56615 32.2549 8.9647 33.2301 10.7282C34.2053 12.4917 34.5132 14.515 34.1029 16.465C33.6927 18.415 32.5889 20.1755 30.9733 21.4567C33.2541 22.4269 35.2308 23.9337 36.7124 25.8317C36.9841 26.182 37.0974 26.6192 37.0274 27.0478C36.9574 27.4764 36.7099 27.8615 36.3389 28.119Z" fill="white"/>
</g>
<defs>
<clipPath id="clip0_53_239">
<rect width="35" height="35" fill="white"/>
</clipPath>
</defs>
</svg>
