<svg width="32" height="32" viewBox="0 0 32 32" fill="none" xmlns="http://www.w3.org/2000/svg">
<path d="M29.2973 26.2501C27.5835 23.2422 24.9074 20.8985 21.6998 19.5963C23.2949 18.4 24.4732 16.7321 25.0677 14.8289C25.6622 12.9257 25.6428 10.8837 25.0123 8.99218C24.3818 7.10061 23.1721 5.45538 21.5546 4.28954C19.937 3.12369 17.9937 2.49634 15.9998 2.49634C14.0059 2.49634 12.0626 3.12369 10.4451 4.28954C8.82754 5.45538 7.61784 7.10061 6.98732 8.99218C6.3568 10.8837 6.33742 12.9257 6.93193 14.8289C7.52644 16.7321 8.70471 18.4 10.2998 19.5963C7.09221 20.8985 4.41612 23.2422 2.70231 26.2501C2.59612 26.4208 2.52534 26.6112 2.49419 26.8099C2.46303 27.0085 2.47214 27.2114 2.52096 27.4065C2.56979 27.6015 2.65733 27.7848 2.7784 27.9453C2.89946 28.1059 3.05157 28.2405 3.22568 28.3411C3.39979 28.4417 3.59235 28.5062 3.79191 28.5309C3.99147 28.5556 4.19396 28.5399 4.38733 28.4848C4.58071 28.4296 4.76103 28.3362 4.91757 28.21C5.07411 28.0838 5.20367 27.9274 5.29856 27.7501C7.56356 23.8351 11.5636 21.5001 15.9998 21.5001C20.4361 21.5001 24.4361 23.8363 26.7011 27.7501C26.9067 28.0808 27.2329 28.3185 27.6106 28.413C27.9884 28.5076 28.3881 28.4515 28.7252 28.2567C29.0624 28.0619 29.3106 27.7437 29.4173 27.3692C29.5241 26.9947 29.4811 26.5934 29.2973 26.2501ZM9.49981 12.0001C9.49981 10.7145 9.88103 9.4578 10.5953 8.38888C11.3095 7.31996 12.3247 6.48684 13.5124 5.99487C14.7001 5.5029 16.007 5.37418 17.2679 5.62498C18.5288 5.87579 19.687 6.49485 20.596 7.40389C21.505 8.31294 22.1241 9.47112 22.3749 10.732C22.6257 11.9929 22.497 13.2998 22.005 14.4875C21.5131 15.6753 20.6799 16.6904 19.611 17.4046C18.5421 18.1189 17.2854 18.5001 15.9998 18.5001C14.2765 18.4981 12.6244 17.8126 11.4058 16.5941C10.1873 15.3755 9.5018 13.7234 9.49981 12.0001Z" fill="white"/>
</svg>
